<svg width="48" height="48" viewBox="0 0 48 48" fill="none" xmlns="http://www.w3.org/2000/svg">
<path d="M14.6 35.496L4.84 23.752L18 13H25.5V16.84H19L9.192 24.68L9.224 22.664L20.136 35.496H14.6ZM1 35.496V13H5.352V35.496H1Z" fill="#F6F5F7"/>
<path d="M30.8645 32.456L42.6725 16.04H47.8565L36.0485 32.456H30.8645ZM30.8645 35.496V32.456L34.1285 31.656H47.6005V35.496H30.8645ZM25.5 16.84V13L47.8565 13V16.04L44.5605 16.84L25.5 16.84Z" fill="#F6F5F7"/>
<path d="M22.2805 35.592C20.8725 35.592 19.6032 35.24 18.4725 34.536C17.3418 33.832 16.4565 32.872 15.8165 31.656C15.1765 30.44 14.8565 29.0747 14.8565 27.56C14.8565 26.024 15.1765 24.648 15.8165 23.432C16.4565 22.216 17.3418 21.256 18.4725 20.552C19.6032 19.848 20.8725 19.496 22.2805 19.496C23.3898 19.496 24.3818 19.72 25.2565 20.168C26.1312 20.616 26.8245 21.2453 27.3365 22.056C27.8698 22.8453 28.1578 23.7413 28.2005 24.744V30.312C28.1578 31.336 27.8698 32.2427 27.3365 33.032C26.8245 33.8213 26.1312 34.4507 25.2565 34.92C24.3818 35.368 23.3898 35.592 22.2805 35.592ZM23.0485 31.72C24.2218 31.72 25.1712 31.336 25.8965 30.568C26.6218 29.7787 26.9845 28.7653 26.9845 27.528C26.9845 26.7173 26.8138 26.0027 26.4725 25.384C26.1525 24.744 25.6938 24.2533 25.0965 23.912C24.5205 23.5493 23.8378 23.368 23.0485 23.368C22.2805 23.368 21.5978 23.5493 21.0005 23.912C20.4245 24.2533 19.9658 24.744 19.6245 25.384C19.3045 26.0027 19.1445 26.7173 19.1445 27.528C19.1445 28.36 19.3045 29.096 19.6245 29.736C19.9658 30.3547 20.4245 30.8453 21.0005 31.208C21.5978 31.5493 22.2805 31.72 23.0485 31.72ZM26.7605 35.272V31.112L27.4325 27.336L26.7605 23.624V19.816H30.9205V35.272H26.7605Z" fill="#9D0CF5"/>
</svg>
