<svg width="20" height="20" viewBox="0 0 20 20" fill="none" xmlns="http://www.w3.org/2000/svg">
<g clip-path="url(#clip0_11_541)">
<path d="M16.9315 3.63375C15.6347 3.03823 14.2662 2.61344 12.8602 2.37C12.8475 2.36786 12.8344 2.36971 12.8227 2.3753C12.8111 2.3809 12.8015 2.38996 12.7952 2.40125C12.619 2.71375 12.424 3.1225 12.2877 3.4425C10.7722 3.2127 9.23072 3.2127 7.71521 3.4425C7.56387 3.08573 7.39191 2.73806 7.20021 2.40125C7.19393 2.38996 7.18431 2.3809 7.17267 2.3753C7.16103 2.36971 7.14795 2.36786 7.13521 2.37C5.72896 2.6125 4.36021 3.0375 3.06396 3.63375C3.05281 3.63789 3.04351 3.64587 3.03771 3.65625C0.445211 7.53 -0.266039 11.3088 0.0827111 15.04C0.0852111 15.0583 0.0939611 15.0738 0.108961 15.0863C1.61892 16.204 3.30742 17.0578 5.10271 17.6113C5.11539 17.6153 5.12901 17.6151 5.1416 17.6108C5.15419 17.6066 5.16509 17.5984 5.17271 17.5875C5.55854 17.0625 5.89938 16.5088 6.19521 15.9263C6.20136 15.9143 6.20346 15.9006 6.20121 15.8873C6.19896 15.874 6.19247 15.8618 6.18271 15.8525L6.16021 15.8388C5.62191 15.6312 5.10037 15.3826 4.60021 15.095C4.58625 15.0871 4.57587 15.0741 4.57121 15.0588C4.56656 15.0434 4.56799 15.0268 4.57521 15.0125L4.59396 14.9888C4.69979 14.9096 4.80313 14.8283 4.90396 14.745C4.9128 14.7379 4.92339 14.7333 4.93462 14.7318C4.94585 14.7302 4.95729 14.7318 4.96771 14.7362C8.24146 16.2313 11.7852 16.2313 15.019 14.7362C15.0297 14.7313 15.0416 14.7295 15.0534 14.731C15.0651 14.7326 15.0761 14.7374 15.0852 14.745C15.186 14.8283 15.2894 14.9096 15.3952 14.9888C15.404 14.9948 15.4111 15.0029 15.4159 15.0125C15.4206 15.022 15.4228 15.0326 15.4223 15.0433C15.4218 15.0539 15.4186 15.0643 15.413 15.0733C15.4074 15.0824 15.3995 15.0898 15.3902 15.095C14.8922 15.3871 14.3698 15.6355 13.829 15.8375C13.8203 15.8406 13.8125 15.8456 13.806 15.8521C13.7996 15.8586 13.7946 15.8664 13.7915 15.875C13.7884 15.8833 13.7872 15.8922 13.7878 15.901C13.7885 15.9099 13.791 15.9185 13.7952 15.9263C14.0952 16.5075 14.439 17.0625 14.8165 17.5875C14.8241 17.5984 14.835 17.6066 14.8476 17.6108C14.8602 17.6151 14.8738 17.6153 14.8865 17.6113C16.6853 17.0608 18.3768 16.2069 19.8877 15.0863C19.8952 15.0809 19.9015 15.0741 19.906 15.0661C19.9105 15.0581 19.9133 15.0492 19.914 15.04C20.3315 10.7263 19.2152 6.97875 16.9565 3.6575C16.9545 3.65183 16.9512 3.64672 16.9469 3.64258C16.9425 3.63845 16.9372 3.63542 16.9315 3.63375ZM6.68396 12.7675C5.69771 12.7675 4.88646 11.8625 4.88646 10.7525C4.88646 9.6425 5.68271 8.73625 6.68396 8.73625C7.69271 8.73625 8.49646 9.64875 8.48146 10.7525C8.48146 11.8625 7.68521 12.7675 6.68396 12.7675ZM13.329 12.7675C12.344 12.7675 11.5315 11.8625 11.5315 10.7525C11.5315 9.6425 12.3277 8.73625 13.329 8.73625C14.3377 8.73625 15.1427 9.64875 15.1265 10.7525C15.1265 11.8625 14.3377 12.7675 13.329 12.7675Z" fill="#9D0CF5"/>
</g>
<defs>
<clipPath id="clip0_11_541">
<rect width="20" height="20" fill="white"/>
</clipPath>
</defs>
</svg>
