<svg width="16" height="16" viewBox="0 0 16 16" fill="none" xmlns="http://www.w3.org/2000/svg">
<g clip-path="url(#clip0_5_76)">
<path d="M2.89901 0.804001L3.49401 0.012001L4.09201 0.802001C4.20483 0.950608 4.25796 1.13606 4.24093 1.32186C4.22391 1.50767 4.13796 1.68037 4.00001 1.806V6.692C3.64534 6.632 3.31201 6.565 3.00001 6.491V1.813C2.8592 1.68819 2.77068 1.51484 2.75214 1.32759C2.7336 1.14035 2.78641 0.953001 2.90001 0.803001L2.89901 0.804001ZM13 1.806V6.491C12.6691 6.56932 12.3355 6.63636 12 6.692V1.812C11.86 1.68732 11.772 1.51456 11.7535 1.32801C11.735 1.14147 11.7873 0.954782 11.9 0.805001L12.495 0.013001L13.093 0.803001C13.2056 0.951568 13.2586 1.13693 13.2414 1.32257C13.2241 1.50821 13.138 1.68068 13 1.806ZM10 1.806C10.1382 1.6805 10.2243 1.50777 10.2413 1.32189C10.2583 1.13602 10.2051 0.950522 10.092 0.802001L9.49401 0.012001L8.89901 0.804001C8.78582 0.954047 8.73336 1.14125 8.75208 1.32826C8.7708 1.51528 8.85933 1.68837 9.00001 1.813V6.983C9.34134 6.96967 9.67468 6.95133 10 6.928V1.806ZM7.00001 1.806V6.982C6.65868 6.97 6.32534 6.952 6.00001 6.928V1.813C5.8592 1.68819 5.77068 1.51484 5.75214 1.32759C5.7336 1.14035 5.78641 0.953001 5.90001 0.803001L6.49501 0.013001L7.09301 0.802001C7.20571 0.950727 7.25867 1.13625 7.24146 1.32206C7.22424 1.50787 7.13811 1.68051 7.00001 1.806Z" fill="#48454A"/>
<path d="M4.5 6.988V4.226C4.83246 4.18071 5.16587 4.1427 5.5 4.112V7.16C5.5 7.291 5.601 7.4 5.732 7.41L5.963 7.427C6.295 7.45167 6.635 7.47 6.983 7.482L7.241 7.492C7.27466 7.49335 7.30825 7.48788 7.33974 7.47592C7.37124 7.46396 7.39999 7.44576 7.42428 7.42241C7.44856 7.39906 7.46788 7.37104 7.48106 7.34004C7.49424 7.30903 7.50103 7.27569 7.501 7.242V4.003C7.83431 3.99725 8.16769 3.99725 8.501 4.003V7.24C8.50098 7.27351 8.5077 7.30669 8.52077 7.33755C8.53383 7.36842 8.55296 7.39634 8.57703 7.41966C8.6011 7.44299 8.62961 7.46123 8.66087 7.47331C8.69213 7.4854 8.7255 7.49107 8.759 7.49L9.018 7.481C9.36467 7.469 9.70433 7.45067 10.037 7.426L10.268 7.409C10.3311 7.40444 10.3902 7.3761 10.4333 7.3297C10.4763 7.2833 10.5002 7.2223 10.5 7.159V4.112C10.8453 4.14333 11.1787 4.18133 11.5 4.226V6.988C11.5001 7.02435 11.5081 7.06024 11.5234 7.09319C11.5388 7.12613 11.5611 7.15533 11.5889 7.17875C11.6167 7.20216 11.6493 7.21924 11.6844 7.22878C11.7194 7.23832 11.7562 7.24011 11.792 7.234L12.083 7.185C12.4477 7.12433 12.792 7.055 13.116 6.977L13.308 6.931C13.3627 6.91796 13.4113 6.8869 13.4462 6.84281C13.481 6.79872 13.5 6.74419 13.5 6.688V4.621C14.172 4.805 14.751 5.03 15.177 5.299C15.592 5.56 16 5.954 16 6.499V13.5C16 14.046 15.592 14.44 15.177 14.701C14.737 14.979 14.134 15.211 13.432 15.397C12.022 15.773 10.102 16 8 16C5.898 16 3.978 15.773 2.568 15.397C1.866 15.21 1.263 14.979 0.823 14.701C0.408 14.44 0 14.046 0 13.5V6.5C0 5.954 0.408 5.56 0.823 5.299C1.249 5.03 1.828 4.805 2.5 4.621V6.688C2.5 6.804 2.58 6.904 2.692 6.931L2.884 6.977C3.208 7.05433 3.55233 7.12367 3.917 7.185L4.209 7.235C4.24484 7.24096 4.28155 7.23903 4.31657 7.22936C4.35159 7.21968 4.38408 7.20249 4.41178 7.17898C4.43948 7.15547 4.46172 7.1262 4.47696 7.09322C4.49219 7.06024 4.50006 7.02433 4.5 6.988ZM1 8.82V10.479C1.28372 10.7915 1.66184 11.0027 2.07672 11.0803C2.4916 11.1579 2.92048 11.0978 3.298 10.909C3.47359 10.8211 3.67241 10.7906 3.86627 10.822C4.06012 10.8535 4.23917 10.9451 4.378 11.084L4.726 11.433C5.06657 11.7735 5.51857 11.9797 5.99896 12.0137C6.47936 12.0477 6.95589 11.9072 7.341 11.618L7.4 11.574C7.5731 11.4442 7.78363 11.374 8 11.374C8.21637 11.374 8.4269 11.4442 8.6 11.574L8.66 11.618C9.04496 11.9066 9.52106 12.0468 10.001 12.0128C10.4809 11.9788 10.9325 11.773 11.273 11.433L11.621 11.085C11.7604 10.9463 11.9398 10.8549 12.1339 10.8235C12.3279 10.7921 12.527 10.8223 12.703 10.91C13.484 11.3 14.421 11.118 15 10.484V8.833L14.32 9.74C14.1879 9.91541 13.9986 10.0391 13.7849 10.0895C13.5712 10.1399 13.3466 10.1139 13.15 10.016C12.7862 9.83464 12.3747 9.77212 11.9735 9.83725C11.5723 9.90238 11.2017 10.0919 10.914 10.379L10.566 10.727C10.3957 10.897 10.1697 11 9.92967 11.0169C9.68958 11.0338 9.45146 10.9635 9.259 10.819L9.199 10.775C8.8529 10.5156 8.43203 10.3754 7.9995 10.3754C7.56697 10.3754 7.1461 10.5156 6.8 10.775L6.74 10.819C6.54762 10.9632 6.30971 11.0333 6.06985 11.0164C5.83 10.9995 5.60426 10.8968 5.434 10.727L5.084 10.377C4.79682 10.09 4.42666 9.90067 4.02591 9.8357C3.62516 9.77073 3.21413 9.83346 2.851 10.015C2.65476 10.1132 2.43021 10.1393 2.21668 10.0887C2.00314 10.038 1.81422 9.9139 1.683 9.738L1 8.82Z" fill="#48454A"/>
</g>
<defs>
<clipPath id="clip0_5_76">
<rect width="16" height="16" fill="white"/>
</clipPath>
</defs>
</svg>
