<svg width="47" height="23" viewBox="0 0 47 23" fill="none" xmlns="http://www.w3.org/2000/svg">
<path d="M13.6 22.496L3.84 10.752L17 1.90735e-06H24.5V3.84H18L8.192 11.68L8.224 9.664L19.136 22.496H13.6ZM0 22.496V1.90735e-06H4.352V22.496H0Z" fill="black"/>
<path d="M29.8645 19.456L41.6725 3.04H46.8565L35.0485 19.456H29.8645ZM29.8645 22.496V19.456L33.1285 18.656H46.6005V22.496H29.8645ZM24.5 3.84V1.90735e-06L46.8565 0V3.04L43.5605 3.84L24.5 3.84Z" fill="black"/>
<path d="M21.2805 22.592C19.8725 22.592 18.6032 22.24 17.4725 21.536C16.3418 20.832 15.4565 19.872 14.8165 18.656C14.1765 17.44 13.8565 16.0747 13.8565 14.56C13.8565 13.024 14.1765 11.648 14.8165 10.432C15.4565 9.216 16.3418 8.256 17.4725 7.552C18.6032 6.848 19.8725 6.496 21.2805 6.496C22.3898 6.496 23.3818 6.72 24.2565 7.168C25.1312 7.616 25.8245 8.24533 26.3365 9.056C26.8698 9.84534 27.1578 10.7413 27.2005 11.744V17.312C27.1578 18.336 26.8698 19.2427 26.3365 20.032C25.8245 20.8213 25.1312 21.4507 24.2565 21.92C23.3818 22.368 22.3898 22.592 21.2805 22.592ZM22.0485 18.72C23.2218 18.72 24.1712 18.336 24.8965 17.568C25.6218 16.7787 25.9845 15.7653 25.9845 14.528C25.9845 13.7173 25.8138 13.0027 25.4725 12.384C25.1525 11.744 24.6938 11.2533 24.0965 10.912C23.5205 10.5493 22.8378 10.368 22.0485 10.368C21.2805 10.368 20.5978 10.5493 20.0005 10.912C19.4245 11.2533 18.9658 11.744 18.6245 12.384C18.3045 13.0027 18.1445 13.7173 18.1445 14.528C18.1445 15.36 18.3045 16.096 18.6245 16.736C18.9658 17.3547 19.4245 17.8453 20.0005 18.208C20.5978 18.5493 21.2805 18.72 22.0485 18.72ZM25.7605 22.272V18.112L26.4325 14.336L25.7605 10.624V6.816H29.9205V22.272H25.7605Z" fill="#9D0CF5"/>
</svg>
