<svg width="20" height="20" viewBox="0 0 20 20" fill="none" xmlns="http://www.w3.org/2000/svg">
<g clip-path="url(#clip0_11_543)">
<path fill-rule="evenodd" clip-rule="evenodd" d="M20 9.9998C20 12.4403 19.1076 14.7965 17.4908 16.6246C15.8741 18.4527 13.6446 19.6265 11.2225 19.9248L13.6 11.0523C13.7776 10.4458 13.7991 9.80431 13.6625 9.1873C13.5231 8.55986 13.2248 7.97877 12.7963 7.4998H19.685C19.895 8.31652 20.0008 9.15652 20 9.9998ZM2.05812e-06 9.9998C-0.000107706 12.6362 1.04093 15.166 2.8966 17.0388C4.75227 18.9116 7.27243 19.9757 9.90875 19.9998L11.6913 13.3486C11.4049 13.493 11.1011 13.6001 10.7875 13.6673C10.0591 13.8238 9.30062 13.7599 8.60875 13.4836C8.11729 13.2872 7.67297 12.989 7.305 12.6086L0.791252 6.0948C0.268232 7.33022 -0.000858619 8.65824 2.05812e-06 9.9998ZM6.255 9.79105L1.385 4.9198C2.33334 3.31303 3.71212 2.00348 5.36558 1.13911C7.01904 0.27474 8.88127 -0.110008 10.7419 0.0283361C12.6025 0.16668 14.3874 0.822602 15.8948 1.922C17.4023 3.0214 18.5722 4.52045 19.2725 6.2498H10.0825C9.54509 6.23772 9.01137 6.34131 8.5175 6.55355C7.87567 6.82806 7.32353 7.27683 6.92366 7.84903C6.52379 8.42122 6.29215 9.09397 6.255 9.79105ZM10 12.4998C10.663 12.4998 11.2989 12.2364 11.7678 11.7676C12.2366 11.2987 12.5 10.6628 12.5 9.9998C12.5 9.33676 12.2366 8.70088 11.7678 8.23204C11.2989 7.7632 10.663 7.4998 10 7.4998C9.33696 7.4998 8.70108 7.7632 8.23223 8.23204C7.76339 8.70088 7.5 9.33676 7.5 9.9998C7.5 10.6628 7.76339 11.2987 8.23223 11.7676C8.70108 12.2364 9.33696 12.4998 10 12.4998Z" fill="#9D0CF5"/>
</g>
<defs>
<clipPath id="clip0_11_543">
<rect width="20" height="20" fill="white"/>
</clipPath>
</defs>
</svg>
