<svg width="20" height="20" viewBox="0 0 20 20" fill="none" xmlns="http://www.w3.org/2000/svg">
<g clip-path="url(#clip0_11_938)">
<path opacity="0.985" fill-rule="evenodd" clip-rule="evenodd" d="M8.17725 -0.0520835C9.3578 -0.0520835 10.5384 -0.0520835 11.7189 -0.0520835C13.9754 0.381044 15.8504 1.45744 17.3439 3.17708C14.7407 2.61794 12.2754 2.96516 9.94808 4.21875C7.95508 3.17088 5.83703 2.77157 3.59391 3.02083C3.24732 3.08441 2.9001 3.13649 2.55225 3.17708C4.04582 1.45744 5.92082 0.381044 8.17725 -0.0520835Z" fill="#9D0CF5"/>
<path opacity="0.995" fill-rule="evenodd" clip-rule="evenodd" d="M9.94775 4.21875C9.94775 4.25347 9.94775 4.2882 9.94775 4.32292C6.70285 6.26089 5.03618 9.14282 4.94775 12.9688C3.35767 12.1253 2.12504 10.91 1.24984 9.32292C0.927067 8.60967 0.597207 7.91523 0.260254 7.23958C0.675262 5.67954 1.43915 4.32537 2.55192 3.17708C2.89977 3.13649 3.24699 3.08441 3.59359 3.02083C5.8367 2.77157 7.95475 3.17087 9.94775 4.21875Z" fill="#9D0CF5"/>
<path opacity="0.997" fill-rule="evenodd" clip-rule="evenodd" d="M17.3436 3.17708C18.4564 4.32538 19.2203 5.67954 19.6353 7.23958C18.9067 9.23274 17.7262 10.9168 16.0936 12.2917C15.7216 12.5439 15.3396 12.7695 14.9478 12.9688C14.8528 9.16268 13.1861 6.28073 9.94775 4.32292C9.94775 4.2882 9.94775 4.25347 9.94775 4.21875C12.275 2.96516 14.7404 2.61794 17.3436 3.17708Z" fill="#9D0CF5"/>
<path opacity="0.972" fill-rule="evenodd" clip-rule="evenodd" d="M0.260254 7.23958C0.597207 7.91523 0.927068 8.60967 1.24984 9.32292C2.12504 10.91 3.35767 12.1253 4.94775 12.9687C4.94775 13.0034 4.94775 13.0382 4.94775 13.0729C5.01726 15.4874 5.83323 17.6055 7.39567 19.4271C7.44596 19.5258 7.46333 19.63 7.44775 19.7396C3.37891 18.4753 0.87891 15.767 -0.0522461 11.6146C-0.0522461 10.5034 -0.0522461 9.39236 -0.0522461 8.28125C0.0509301 7.94343 0.155097 7.59621 0.260254 7.23958Z" fill="#9D0CF5"/>
<path opacity="0.972" fill-rule="evenodd" clip-rule="evenodd" d="M19.6354 7.23958C19.7406 7.59621 19.8448 7.94343 19.9479 8.28125C19.9479 9.39236 19.9479 10.5034 19.9479 11.6146C19.0167 15.767 16.5167 18.4753 12.4479 19.7396C12.4324 19.63 12.4497 19.5258 12.5 19.4271C14.0617 17.608 14.8777 15.49 14.9479 13.0729C14.9479 13.0382 14.9479 13.0034 14.9479 12.9687C15.3398 12.7695 15.7217 12.5439 16.0937 12.2917C17.7263 10.9168 18.9068 9.23274 19.6354 7.23958Z" fill="#9D0CF5"/>
<path opacity="0.999" fill-rule="evenodd" clip-rule="evenodd" d="M4.94775 13.0729C5.71389 13.4732 6.5125 13.803 7.34359 14.0625C10.0076 14.6736 12.5423 14.3437 14.9478 13.0729C14.8775 15.49 14.0616 17.608 12.4998 19.4271C12.4495 19.5258 12.4322 19.63 12.4478 19.7396C12.1485 19.771 11.8708 19.8405 11.6144 19.9479C10.5033 19.9479 9.3922 19.9479 8.28109 19.9479C8.02475 19.8405 7.74697 19.771 7.44775 19.7396C7.46333 19.63 7.44596 19.5258 7.39567 19.4271C5.83323 17.6055 5.01726 15.4874 4.94775 13.0729Z" fill="#9D0CF5"/>
</g>
<defs>
<clipPath id="clip0_11_938">
<rect width="20" height="20" fill="white"/>
</clipPath>
</defs>
</svg>
