<svg width="16" height="16" viewBox="0 0 16 16" fill="none" xmlns="http://www.w3.org/2000/svg">
<g clip-path="url(#clip0_22_15)">
<path d="M15.545 6.55799C15.6384 7.09494 15.6849 7.63898 15.684 8.18399C15.684 10.618 14.814 12.676 13.3 14.069H13.302C11.978 15.292 10.158 16 8 16C5.87827 16 3.84344 15.1571 2.34315 13.6568C0.842855 12.1566 0 10.1217 0 7.99999C0 5.87826 0.842855 3.84343 2.34315 2.34314C3.84344 0.842845 5.87827 -1.02787e-05 8 -1.02787e-05C9.98573 -0.0221242 11.9032 0.723807 13.352 2.08199L11.068 4.36599C10.2422 3.57924 9.14044 3.1483 8 3.16599C5.913 3.16599 4.14 4.57399 3.508 6.46999C3.1735 7.46359 3.1735 8.53939 3.508 9.53299H3.511C4.146 11.426 5.916 12.834 8.003 12.834C9.081 12.834 10.007 12.558 10.725 12.07H10.722C11.139 11.7939 11.4957 11.4361 11.7705 11.0183C12.0453 10.6004 12.2326 10.1312 12.321 9.63899H8V6.55899L15.545 6.55799Z" fill="#44494A"/>
</g>
<defs>
<clipPath id="clip0_22_15">
<rect width="16" height="16" fill="white"/>
</clipPath>
</defs>
</svg>
