<svg width="20" height="20" viewBox="0 0 20 20" fill="none" xmlns="http://www.w3.org/2000/svg">
<g clip-path="url(#clip0_22_4)">
<mask id="mask0_22_4" style="mask-type:luminance" maskUnits="userSpaceOnUse" x="0" y="0" width="20" height="20">
<path d="M20 0H0V20H20V0Z" fill="white"/>
</mask>
<g mask="url(#mask0_22_4)">
<path opacity="0.985" fill-rule="evenodd" clip-rule="evenodd" d="M8.17725 -0.052124C9.3578 -0.052124 10.5384 -0.052124 11.7189 -0.052124C13.9754 0.381003 15.8504 1.4574 17.3439 3.17704C14.7407 2.6179 12.2754 2.96512 9.94808 4.21871C7.95508 3.17084 5.83703 2.77153 3.59391 3.02079C3.24732 3.08437 2.9001 3.13645 2.55225 3.17704C4.04582 1.4574 5.92082 0.381003 8.17725 -0.052124Z" fill="#44494A"/>
<path opacity="0.995" fill-rule="evenodd" clip-rule="evenodd" d="M9.94775 4.21874C9.94775 4.25346 9.94775 4.28819 9.94775 4.32291C6.70285 6.26088 5.03618 9.14281 4.94775 12.9688C3.35767 12.1253 2.12504 10.91 1.24984 9.32291C0.927067 8.60966 0.597207 7.91522 0.260254 7.23957C0.675262 5.67953 1.43915 4.32536 2.55192 3.17707C2.89977 3.13648 3.24699 3.0844 3.59359 3.02082C5.8367 2.77156 7.95475 3.17086 9.94775 4.21874Z" fill="#44494A"/>
<path opacity="0.997" fill-rule="evenodd" clip-rule="evenodd" d="M17.3436 3.17704C18.4564 4.32534 19.2203 5.6795 19.6353 7.23954C18.9067 9.2327 17.7262 10.9168 16.0936 12.2917C15.7216 12.5439 15.3396 12.7695 14.9478 12.9688C14.8528 9.16264 13.1861 6.28069 9.94775 4.32288C9.94775 4.28816 9.94775 4.25343 9.94775 4.21871C12.275 2.96512 14.7404 2.6179 17.3436 3.17704Z" fill="#44494A"/>
<path opacity="0.972" fill-rule="evenodd" clip-rule="evenodd" d="M0.260254 7.2395C0.597207 7.91515 0.927068 8.60959 1.24984 9.32284C2.12504 10.9099 3.35767 12.1252 4.94775 12.9686C4.94775 13.0033 4.94775 13.0381 4.94775 13.0728C5.01726 15.4873 5.83323 17.6054 7.39567 19.427C7.44596 19.5257 7.46333 19.6299 7.44775 19.7395C3.37891 18.4752 0.87891 15.7669 -0.0522461 11.6145C-0.0522461 10.5033 -0.0522461 9.39228 -0.0522461 8.28117C0.0509301 7.94335 0.155097 7.59613 0.260254 7.2395Z" fill="#44494A"/>
<path opacity="0.972" fill-rule="evenodd" clip-rule="evenodd" d="M19.6354 7.2395C19.7406 7.59613 19.8448 7.94335 19.9479 8.28117C19.9479 9.39228 19.9479 10.5033 19.9479 11.6145C19.0167 15.7669 16.5167 18.4752 12.4479 19.7395C12.4324 19.6299 12.4497 19.5257 12.5 19.427C14.0617 17.6079 14.8777 15.4899 14.9479 13.0728C14.9479 13.0381 14.9479 13.0033 14.9479 12.9686C15.3398 12.7694 15.7217 12.5438 16.0937 12.2916C17.7263 10.9167 18.9068 9.23266 19.6354 7.2395Z" fill="#44494A"/>
<path opacity="0.999" fill-rule="evenodd" clip-rule="evenodd" d="M4.94775 13.0729C5.71389 13.4732 6.5125 13.803 7.34359 14.0625C10.0076 14.6736 12.5423 14.3437 14.9478 13.0729C14.8775 15.49 14.0616 17.608 12.4998 19.4271C12.4495 19.5258 12.4322 19.63 12.4478 19.7396C12.1485 19.771 11.8708 19.8405 11.6144 19.9479C10.5033 19.9479 9.3922 19.9479 8.28109 19.9479C8.02475 19.8405 7.74697 19.771 7.44775 19.7396C7.46333 19.63 7.44596 19.5258 7.39567 19.4271C5.83323 17.6055 5.01726 15.4874 4.94775 13.0729Z" fill="#44494A"/>
</g>
</g>
<defs>
<clipPath id="clip0_22_4">
<rect width="20" height="20" fill="white"/>
</clipPath>
</defs>
</svg>
